# xmcd
#
# Track frame offsets:
#	150
#	13542
#	28319
#	40186
#	56913
#	73620
#	86722
#	104474
#	117911
#	134593
#	146975
#	162962
#	177774
#	191721
#	207093
#	220905
#	232572
#	246674
#	280416
#	293378
#	316280
#	329352
#	342629
#
# Disc length: 4783 seconds
#
# Revision: 1
# Processed by: cddbd v1.4PL0 Copyright (c) Steve Scherf et al.
# Submitted via: audiograbber 1.82.02
#
DISCID=6812ad17
DTITLE=VER - CTV-003 PSA Programming
DYEAR=1900
DGENRE=Country
TTITLE0=SHeDaisy - Little Good-Byes (99)
TTITLE1=Montgomery Gentry - Hell Yeah (03)
TTITLE2=Dixie Chicks - There's Your Troble'
TTITLE3=Pat Green - Wave On Wave (03)
TTITLE4=John Michael Montgomery - Friends (97)
TTITLE5=Faith Hill - The Way You Love Me
TTITLE6=Kenny Chesney - There Goes My Life (03)
TTITLE7=Alabama - Jukebox In My Mind
TTITLE8=Terri Clark - If I Were You
TTITLE9=Joe Nichols - Cool To Be Fool (03)
TTITLE10=Brad Paisley - He Didn't Have To Be (99)
TTITLE11=Tim McGraw - Real Good Man (03)
TTITLE12=Brooks and Dunn - She's Not The Cheatin' Kind
TTITLE13=George Strait - Cowboys Like Us (03)
TTITLE14=Pam Tillis - Maybe It Was Memphis (92)
TTITLE15=Mark Wills - That's A Woman (03)
TTITLE16=Mark McGuinn - Mrs. Steven Rudy (00)
TTITLE17=Open - Open
TTITLE18=Collin Ray - Thats My Story
TTITLE19=Open - Open
TTITLE20=Tracy Lawrence - Alibis
TTITLE21=Clint Black - A Better Man
TTITLE22=Kellie Coffey - Texas Plates (03)
EXTD=
EXTT0=
EXTT1=
EXTT2=
EXTT3=
EXTT4=
EXTT5=
EXTT6=
EXTT7=
EXTT8=
EXTT9=
EXTT10=
EXTT11=
EXTT12=
EXTT13=
EXTT14=
EXTT15=
EXTT16=
EXTT17=
EXTT18=
EXTT19=
EXTT20=
EXTT21=
EXTT22=
PLAYORDER=
